<svg width="336" height="337" viewBox="0 0 336 337" fill="none" xmlns="http://www.w3.org/2000/svg">
<path d="M75.5674 124.712L93.5568 203.874L136.502 187.438L168.667 223.381L211.238 205.876L182.592 173.649L179.409 158.53L186.571 127.895L171.277 84.7472H141.215L93.5568 94.4742L79.1481 106.012L75.5674 124.712Z" fill="#F4D6B9"/>
<path d="M150.365 165.691L140.894 185.757L93.5568 203.874L75.5674 124.712L79.1481 106.012L93.5568 94.4742L141.215 84.7472L171.277 84.7472L186.571 127.895L179.409 158.53L181.001 166.089L182.592 173.649L196.915 189.762L211.238 205.876M136.472 187.405L160.633 215.735" stroke="black" stroke-width="4.60381"/>
<path d="M93.5567 110.823L118.024 108.975L123.262 124.997L133.021 125.456L137.864 134.292L150.376 118.834L179.409 158.53L186.571 127.895L182.592 106.012L173.792 81.8609L136.472 78.4716L89.9856 93.5691L81.8912 101.481L93.5567 110.823Z" fill="black" stroke="black" stroke-width="4.60381"/>
<path d="M155.935 226.166L220.389 195.133L224.766 205.876L260.573 231.737L224.766 258.791H142.408L135.644 241.285L155.935 226.166Z" fill="#77BDBD"/>
<path d="M155.935 226.166L220.389 195.133L224.765 205.876L260.573 231.737L224.765 258.791H142.408L135.644 241.285L129.279 252.425" stroke="black" stroke-width="4.60381"/>
<path d="M150.269 120.279L146.436 128.641L156.54 150.241L164.901 143.273L162.811 120.279H150.269Z" fill="#F4D6B9"/>
<path d="M146.529 131.851L150.269 120.279H162.811L164.901 143.273L156.54 150.241" stroke="black" stroke-width="4.60381"/>
</svg>
